# xmcd CD database file
#
# Track frame offsets:
#	150
#	19318
#	32726
#	53096
#	64866
#	83680
#	103983
#	115938
#	130200
#	146824
#	159112
#	175246
#	185215
#	202863
#
# Disc length: 2880 seconds
#
# Revision: 0
# Processed by: cddbd v1.5.1PL2 Copyright (c) Steve Scherf et al.
# Submitted via: CDex 1.51
#
DISCID=c30b3e0e
DTITLE=MATT CPSTA - SONGS WE SING
DYEAR=2006
DGENRE=Pop
TTITLE0=Cold December
TTITLE1=Astair
TTITLE2=Sweet Thursday
TTITLE3=Sunshine
TTITLE4=These Arms
TTITLE5=Ballad Of Miss Kate
TTITLE6=Sweet Rose
TTITLE7=Songs We Sing
TTITLE8=Yellow Taxi
TTITLE9=I Tried
TTITLE10=Behind The Moon
TTITLE11=Oh Dear
TTITLE12=Wash Away
TTITLE13=Desire's Only Fling
EXTD=YEAR: 2006
EXTT0=
EXTT1=
EXTT2=
EXTT3=
EXTT4=
EXTT5=
EXTT6=
EXTT7=
EXTT8=
EXTT9=
EXTT10=
EXTT11=
EXTT12=
EXTT13=
PLAYORDER=
